<svg width="972.04819" height="599.5" xmlns="http://www.w3.org/2000/svg">
 <defs>
  <filter id="svg_16_blur">
   <feGaussianBlur stdDeviation="0.5" in="SourceGraphic"/>
  </filter>
 </defs>
 <g>
  <title>background</title>
  <rect fill="none" id="canvas_background" height="402" width="582" y="-1" x="-1"/>
 </g>
 <g>
  <title>Layer 1</title>
  <polygon stroke="null" id="svg_2" fill="#8780a0" points="616.39501953125,510.5950012207031 617.1589965820312,513.4989929199219 631.4600219726562,509.72198486328125 634.1829833984375,524.2630004882812 637.1339721679688,523.7070007324219 633.8140258789062,505.99798583984375 616.39501953125,510.5950012207031 "/>
  <polygon transform="rotate(-52.71648406982422 332.91949462890653,551.7330322265626) " stroke="null" id="svg_3" fill="#8780a0" points="341.8840026855469,542.5369873046875 341.9639892578125,545.5390014648438 327.1759948730469,545.9140014648438 328.6319885253906,560.635986328125 325.64300537109375,560.9290161132812 323.875,542.9979858398438 341.8840026855469,542.5369873046875 "/>
  <path id="svg_4" fill="#f9f9f9" d="m298.242781,236.81132l0,161.57657a4.06656,4.06656 0 0 1 -4.06522,4.06793l-274.289,0a3.42867,3.42867 0 0 1 -0.583,-0.04534a4.06416,4.06416 0 0 1 -3.48494,-4.02259l0,-161.57657a4.06654,4.06654 0 0 1 4.06518,-4.06789l274.28905,0a4.06655,4.06655 0 0 1 4.06793,4.06521l0,0.00268z"/>
  <circle id="svg_5" fill="#c4c0d3" r="35.68826" cy="293.12549" cx="84.96085"/>
  <path id="svg_6" fill="#5e7ce0" d="m196.875241,403.10358l-175.07589,0a3.5694,3.5694 0 0 1 -0.65425,-0.05183l82.80283,-143.42642a5.79764,5.79764 0 0 1 10.09208,0l55.57109,96.25026l2.6623,4.60558l24.60184,42.62241z"/>
  <polygon id="svg_7" opacity="0.2" points="196.875 403.103 137.1 403.103 166.443 360.481 168.556 357.411 169.611 355.875 172.274 360.481 196.875 403.103"/>
  <path id="svg_8" fill="#5e7ce0" d="m294.356221,402.10358l-151.42627,0l29.34345,-42.62243l2.11167,-3.0704l38.23713,-55.5452c2.50681,-3.64039 8.53745,-3.86709 11.48473,-0.68661a6.91157,6.91157 0 0 1 0.55064,0.68661l69.69865,101.23803z"/>
  <path id="svg_9" fill="#5e7ce0" d="m313.674701,226.60693a13.03563,13.03563 0 0 0 -12.241,-8.60693l-288.42767,0a13.001,13.001 0 0 0 -13.006,13.006l0,227.988a13.02447,13.02447 0 0 0 13.006,13.006l288.42771,0a13.02446,13.02446 0 0 0 13.006,-13.006l0,-227.988a12.90708,12.90708 0 0 0 -0.76504,-4.39907zm-0.76506,232.38707a11.48989,11.48989 0 0 1 -11.4759,11.4759l-288.42771,0a11.48989,11.48989 0 0 1 -11.47593,-11.4759l0,-227.988a11.48989,11.48989 0 0 1 11.47591,-11.4759l288.42773,0a11.48989,11.48989 0 0 1 11.4759,11.4759l0,227.988z"/>
  <path id="svg_10" fill="#ffffff" d="m946.413611,29.77225l0,255.72354a6.43607,6.43607 0 0 1 -6.43394,6.43822l-434.111,0a5.42512,5.42512 0 0 1 -0.92269,-0.07176a6.43224,6.43224 0 0 1 -5.51553,-6.36646l0,-255.72354a6.436,6.436 0 0 1 6.43386,-6.43816l434.11107,0a6.43606,6.43606 0 0 1 6.43823,6.43391l0,0.00425z"/>
  <circle id="svg_11" fill="#cbc9d3" r="56.48299" cy="118.89939" cx="608.85716"/>
  <path id="svg_12" fill="#5e7ce0" d="m785.981521,292.95921l-277.08862,0a5.64951,5.64951 0 0 1 -1.03547,-0.082l131.05014,-226.99775a9.17579,9.17579 0 0 1 15.97251,0l87.9511,152.33308l4.21356,7.28916l38.93678,67.45751z"/>
  <polygon id="svg_13" opacity="0.2" points="785.981 292.959 691.377 292.959 737.818 225.502 741.161 220.643 742.832 218.212 747.045 225.502 785.981 292.959"/>
  <path id="svg_14" fill="#5e7ce0" d="m940.262431,292.95921l-239.6589,0l46.44121,-67.45755l3.34209,-4.85945l60.517,-87.91012c3.96746,-5.76155 13.512,-6.12036 18.17662,-1.08668a10.936,10.936 0 0 1 0.87147,1.08668l110.31051,160.22712z"/>
  <path id="svg_15" fill="#5e7ce0" d="m970.837351,13.622a20.6312,20.6312 0 0 0 -19.37349,-13.622l-456.48795,0a20.57636,20.57636 0 0 0 -20.58434,20.58434l0,360.83132a20.61353,20.61353 0 0 0 20.58434,20.58434l456.488,0a20.61353,20.61353 0 0 0 20.58434,-20.58434l0,-360.83132a20.42794,20.42794 0 0 0 -1.2109,-6.96234zm-1.21084,367.79367a18.18479,18.18479 0 0 1 -18.16265,18.16265l-456.48795,0a18.18479,18.18479 0 0 1 -18.16265,-18.16265l0,-360.83133a18.18479,18.18479 0 0 1 18.16265,-18.16265l456.488,0a18.18479,18.18479 0 0 1 18.16265,18.16265l-0.00005,360.83133z"/>
  <text filter="url(#svg_16_blur)" opacity="0.6" font-weight="bold" xml:space="preserve" text-anchor="start" font-family="FangSong" font-size="35" id="svg_16" y="550.203125" x="343.290391" stroke-opacity="null" stroke-width="0" stroke="null" fill="#000000">没有定义图片信息</text>
 </g>
</svg>